<?xml version="1.0" encoding="UTF-8"?>
<svg width="16px" height="16px" viewBox="0 0 16 16" version="1.1" xmlns="http://www.w3.org/2000/svg" xmlns:xlink="http://www.w3.org/1999/xlink">
    <!-- Generator: Sketch 56.2 (81672) - https://sketch.com -->
    <title>Icons / Actionable / Close</title>
    <desc>Created with Sketch.</desc>
    <g id="----Components" stroke="none" stroke-width="1" fill="none" fill-rule="evenodd">
        <g id="Takeover-/-Desktop-/-Modal-header" transform="translate(-644.000000, -32.000000)" fill="#333333">
            <g id="Header">
                <g id="Icons-/-Actionable-/-Close" transform="translate(640.000000, 28.000000)">
                    <path d="M13.4017611,12 L19.7096858,18.3079247 C20.0967714,18.6950104 20.0967714,19.3226002 19.7096858,19.7096858 C19.3226002,20.0967714 18.6950104,20.0967714 18.3079247,19.7096858 L12,13.4017611 L5.69207527,19.7096858 C5.30498964,20.0967714 4.67739984,20.0967714 4.29031422,19.7096858 C3.90322859,19.3226002 3.90322859,18.6950104 4.29031422,18.3079247 L10.5982389,12 L4.29031422,5.69207527 C3.90322859,5.30498964 3.90322859,4.67739984 4.29031422,4.29031422 C4.67739984,3.90322859 5.30498964,3.90322859 5.69207527,4.29031422 L12,10.5982389 L18.3079247,4.29031422 C18.6950104,3.90322859 19.3226002,3.90322859 19.7096858,4.29031422 C20.0967714,4.67739984 20.0967714,5.30498964 19.7096858,5.69207527 L13.4017611,12 Z" id="Icon"></path>
                </g>
            </g>
        </g>
    </g>
</svg>